<?xml version="1.0" standalone="no"?>
<!DOCTYPE svg PUBLIC "-//W3C//DTD SVG 20010904//EN"
 "http://www.w3.org/TR/2001/REC-SVG-20010904/DTD/svg10.dtd">
<svg version="1.0" xmlns="http://www.w3.org/2000/svg"
 width="88.000000pt" height="64.000000pt" viewBox="0 0 88.000000 64.000000"
 preserveAspectRatio="xMidYMid meet">

<g transform="translate(0.000000,64.000000) scale(0.100000,-0.100000)"
fill="#000000" stroke="none">
<path d="M0 512 l0 -124 36 -49 c36 -49 36 -61 0 -34 -31 24 -36 18 -36 -37 0
-40 5 -57 23 -76 l22 -25 -22 12 -23 12 0 -96 0 -95 275 0 c247 1 275 2 275
17 0 15 2 15 18 0 16 -14 43 -17 165 -17 l147 0 0 320 0 320 -360 0 -359 0 10
-27 c14 -37 5 -39 -24 -4 -23 27 -30 30 -86 29 l-61 -1 0 -125z m315 87 c17
-33 17 -42 -2 -31 -12 8 -29 62 -19 62 3 0 13 -14 21 -31z m415 -4 c0 -18 -45
-21 -56 -3 -5 8 0 9 14 6 12 -4 20 -2 16 3 -3 5 2 9 10 9 9 0 16 -7 16 -15z
m120 -25 c0 -5 -5 -10 -11 -10 -5 0 -7 5 -4 10 3 6 8 10 11 10 2 0 4 -4 4 -10z
m-794 -55 c9 -14 14 -28 11 -31 -9 -9 -57 27 -57 42 0 23 28 16 46 -11z m132
-84 c30 -53 28 -60 -8 -25 -16 16 -30 37 -30 47 0 28 15 20 38 -22z m301 -6
c19 -44 43 -62 144 -107 33 -15 33 -20 5 -95 -65 -171 -263 -239 -458 -159
-71 29 -119 61 -108 71 4 4 18 8 32 9 15 0 29 10 35 23 5 11 26 26 45 33 30
10 38 9 52 -4 21 -21 40 -20 64 4 11 11 29 20 40 20 13 0 22 9 26 28 4 15 14
32 23 39 15 10 15 14 0 40 -23 39 -15 53 23 42 53 -15 78 -37 90 -83 8 -29 16
-42 25 -39 8 3 13 -2 13 -13 1 -18 2 -18 16 1 19 25 15 95 -6 106 -8 4 -34 12
-57 18 -24 7 -55 22 -70 35 -26 23 -27 24 -10 50 27 40 53 34 76 -19z m291
-16 c-25 -4 -47 -5 -49 -3 -7 6 65 21 79 15 8 -3 -5 -8 -30 -12z m-601 -97
c12 -22 11 -23 -8 -12 -22 11 -26 22 -14 33 7 8 7 9 22 -21z m660 -8 c2 -2
-22 -4 -55 -3 l-59 1 35 12 c32 12 58 9 79 -10z m-94 -123 c28 -7 29 -8 8 -15
-14 -4 -33 -1 -50 8 -23 12 -24 15 -8 14 11 0 34 -3 50 -7z m103 -107 c2 -1
-5 -7 -15 -12 -13 -7 -28 -5 -53 8 l-35 18 50 -5 c28 -3 52 -7 53 -9z m-142
-52 c-12 -13 -19 -11 -50 13 -20 15 -36 29 -36 30 0 2 23 -4 50 -13 44 -14 48
-18 36 -30z"/>
<path d="M410 130 c-8 -5 -10 -10 -5 -10 6 0 17 5 25 10 8 5 11 10 5 10 -5 0
-17 -5 -25 -10z"/>
<path d="M298 123 c6 -2 18 -2 25 0 6 3 1 5 -13 5 -14 0 -19 -2 -12 -5z"/>
</g>
</svg>
